<svg xmlns="http://www.w3.org/2000/svg" version="1.1" xmlns:xlink="http://www.w3.org/1999/xlink" xmlns:svgjs="http://svgjs.dev/svgjs" viewBox="0 0 800 800" opacity="0.6" width="800" height="800"><g stroke-width="0.75" stroke="hsla(261, 2%, 92%, 1.00)" fill="none"><circle r="2.8947368421052633" cx="0" cy="0" fill="hsla(261, 2%, 92%, 1.00)" stroke="none"></circle><circle r="2.8947368421052633" cx="72.72727272727273" cy="0" fill="hsla(180, 73%, 52%, 1.00)" stroke="none"></circle><circle r="2.8947368421052633" cx="145.45454545454547" cy="0" fill="hsla(261, 2%, 92%, 1.00)" stroke="none"></circle><circle r="2.8947368421052633" cx="218.1818181818182" cy="0" fill="hsla(180, 73%, 52%, 1.00)" stroke="none"></circle><circle r="2.8947368421052633" cx="290.90909090909093" cy="0" fill="hsla(261, 2%, 92%, 1.00)" stroke="none"></circle><circle r="2.8947368421052633" cx="363.6363636363637" cy="0" fill="hsla(180, 73%, 52%, 1.00)" stroke="none"></circle><circle r="2.8947368421052633" cx="436.36363636363643" cy="0" fill="hsla(261, 2%, 92%, 1.00)" stroke="none"></circle><circle r="2.8947368421052633" cx="509.0909090909092" cy="0" fill="hsla(180, 73%, 52%, 1.00)" stroke="none"></circle><circle r="2.8947368421052633" cx="581.8181818181819" cy="0" fill="hsla(261, 2%, 92%, 1.00)" stroke="none"></circle><circle r="2.8947368421052633" cx="654.5454545454546" cy="0" fill="hsla(180, 73%, 52%, 1.00)" stroke="none"></circle><circle r="2.8947368421052633" cx="727.2727272727274" cy="0" fill="hsla(261, 2%, 92%, 1.00)" stroke="none"></circle><circle r="2.8947368421052633" cx="800.0000000000001" cy="0" fill="hsla(180, 73%, 52%, 1.00)" stroke="none"></circle><circle r="2.8947368421052633" cx="0" cy="100" fill="hsla(261, 2%, 92%, 1.00)" stroke="none"></circle><circle r="2.8947368421052633" cx="72.72727272727273" cy="100" fill="hsla(180, 73%, 52%, 1.00)" stroke="none"></circle><circle r="2.8947368421052633" cx="145.45454545454547" cy="100" fill="hsla(261, 2%, 92%, 1.00)" stroke="none"></circle><circle r="2.8947368421052633" cx="218.1818181818182" cy="100" fill="hsla(180, 73%, 52%, 1.00)" stroke="none"></circle><circle r="2.8947368421052633" cx="290.90909090909093" cy="100" fill="hsla(261, 2%, 92%, 1.00)" stroke="none"></circle><circle r="2.8947368421052633" cx="363.6363636363637" cy="100" fill="hsla(180, 73%, 52%, 1.00)" stroke="none"></circle><circle r="2.8947368421052633" cx="436.36363636363643" cy="100" fill="hsla(261, 2%, 92%, 1.00)" stroke="none"></circle><circle r="2.8947368421052633" cx="509.0909090909092" cy="100" fill="hsla(180, 73%, 52%, 1.00)" stroke="none"></circle><circle r="2.8947368421052633" cx="581.8181818181819" cy="100" fill="hsla(261, 2%, 92%, 1.00)" stroke="none"></circle><circle r="2.8947368421052633" cx="654.5454545454546" cy="100" fill="hsla(180, 73%, 52%, 1.00)" stroke="none"></circle><circle r="2.8947368421052633" cx="727.2727272727274" cy="100" fill="hsla(261, 2%, 92%, 1.00)" stroke="none"></circle><circle r="2.8947368421052633" cx="800.0000000000001" cy="100" fill="hsla(180, 73%, 52%, 1.00)" stroke="none"></circle><circle r="2.8947368421052633" cx="0" cy="200" fill="hsla(261, 2%, 92%, 1.00)" stroke="none"></circle><circle r="2.8947368421052633" cx="72.72727272727273" cy="200" fill="hsla(180, 73%, 52%, 1.00)" stroke="none"></circle><circle r="2.8947368421052633" cx="145.45454545454547" cy="200" fill="hsla(261, 2%, 92%, 1.00)" stroke="none"></circle><circle r="2.8947368421052633" cx="218.1818181818182" cy="200" fill="hsla(180, 73%, 52%, 1.00)" stroke="none"></circle><circle r="2.8947368421052633" cx="290.90909090909093" cy="200" fill="hsla(261, 2%, 92%, 1.00)" stroke="none"></circle><circle r="2.8947368421052633" cx="363.6363636363637" cy="200" fill="hsla(180, 73%, 52%, 1.00)" stroke="none"></circle><circle r="2.8947368421052633" cx="436.36363636363643" cy="200" fill="hsla(261, 2%, 92%, 1.00)" stroke="none"></circle><circle r="2.8947368421052633" cx="509.0909090909092" cy="200" fill="hsla(180, 73%, 52%, 1.00)" stroke="none"></circle><circle r="2.8947368421052633" cx="581.8181818181819" cy="200" fill="hsla(261, 2%, 92%, 1.00)" stroke="none"></circle><circle r="2.8947368421052633" cx="654.5454545454546" cy="200" fill="hsla(180, 73%, 52%, 1.00)" stroke="none"></circle><circle r="2.8947368421052633" cx="727.2727272727274" cy="200" fill="hsla(261, 2%, 92%, 1.00)" stroke="none"></circle><circle r="2.8947368421052633" cx="800.0000000000001" cy="200" fill="hsla(180, 73%, 52%, 1.00)" stroke="none"></circle><circle r="2.8947368421052633" cx="0" cy="300" fill="hsla(261, 2%, 92%, 1.00)" stroke="none"></circle><circle r="2.8947368421052633" cx="72.72727272727273" cy="300" fill="hsla(180, 73%, 52%, 1.00)" stroke="none"></circle><circle r="2.8947368421052633" cx="145.45454545454547" cy="300" fill="hsla(261, 2%, 92%, 1.00)" stroke="none"></circle><circle r="2.8947368421052633" cx="218.1818181818182" cy="300" fill="hsla(180, 73%, 52%, 1.00)" stroke="none"></circle><circle r="2.8947368421052633" cx="290.90909090909093" cy="300" fill="hsla(261, 2%, 92%, 1.00)" stroke="none"></circle><circle r="2.8947368421052633" cx="363.6363636363637" cy="300" fill="hsla(180, 73%, 52%, 1.00)" stroke="none"></circle><circle r="2.8947368421052633" cx="436.36363636363643" cy="300" fill="hsla(261, 2%, 92%, 1.00)" stroke="none"></circle><circle r="2.8947368421052633" cx="509.0909090909092" cy="300" fill="hsla(180, 73%, 52%, 1.00)" stroke="none"></circle><circle r="2.8947368421052633" cx="581.8181818181819" cy="300" fill="hsla(261, 2%, 92%, 1.00)" stroke="none"></circle><circle r="2.8947368421052633" cx="654.5454545454546" cy="300" fill="hsla(180, 73%, 52%, 1.00)" stroke="none"></circle><circle r="2.8947368421052633" cx="727.2727272727274" cy="300" fill="hsla(261, 2%, 92%, 1.00)" stroke="none"></circle><circle r="2.8947368421052633" cx="800.0000000000001" cy="300" fill="hsla(180, 73%, 52%, 1.00)" stroke="none"></circle><circle r="2.8947368421052633" cx="0" cy="400" fill="hsla(261, 2%, 92%, 1.00)" stroke="none"></circle><circle r="2.8947368421052633" cx="72.72727272727273" cy="400" fill="hsla(180, 73%, 52%, 1.00)" stroke="none"></circle><circle r="2.8947368421052633" cx="145.45454545454547" cy="400" fill="hsla(261, 2%, 92%, 1.00)" stroke="none"></circle><circle r="2.8947368421052633" cx="218.1818181818182" cy="400" fill="hsla(180, 73%, 52%, 1.00)" stroke="none"></circle><circle r="2.8947368421052633" cx="290.90909090909093" cy="400" fill="hsla(261, 2%, 92%, 1.00)" stroke="none"></circle><circle r="2.8947368421052633" cx="363.6363636363637" cy="400" fill="hsla(180, 73%, 52%, 1.00)" stroke="none"></circle><circle r="2.8947368421052633" cx="436.36363636363643" cy="400" fill="hsla(261, 2%, 92%, 1.00)" stroke="none"></circle><circle r="2.8947368421052633" cx="509.0909090909092" cy="400" fill="hsla(180, 73%, 52%, 1.00)" stroke="none"></circle><circle r="2.8947368421052633" cx="581.8181818181819" cy="400" fill="hsla(261, 2%, 92%, 1.00)" stroke="none"></circle><circle r="2.8947368421052633" cx="654.5454545454546" cy="400" fill="hsla(180, 73%, 52%, 1.00)" stroke="none"></circle><circle r="2.8947368421052633" cx="727.2727272727274" cy="400" fill="hsla(261, 2%, 92%, 1.00)" stroke="none"></circle><circle r="2.8947368421052633" cx="800.0000000000001" cy="400" fill="hsla(180, 73%, 52%, 1.00)" stroke="none"></circle><circle r="2.8947368421052633" cx="0" cy="500" fill="hsla(261, 2%, 92%, 1.00)" stroke="none"></circle><circle r="2.8947368421052633" cx="72.72727272727273" cy="500" fill="hsla(180, 73%, 52%, 1.00)" stroke="none"></circle><circle r="2.8947368421052633" cx="145.45454545454547" cy="500" fill="hsla(261, 2%, 92%, 1.00)" stroke="none"></circle><circle r="2.8947368421052633" cx="218.1818181818182" cy="500" fill="hsla(180, 73%, 52%, 1.00)" stroke="none"></circle><circle r="2.8947368421052633" cx="290.90909090909093" cy="500" fill="hsla(261, 2%, 92%, 1.00)" stroke="none"></circle><circle r="2.8947368421052633" cx="363.6363636363637" cy="500" fill="hsla(180, 73%, 52%, 1.00)" stroke="none"></circle><circle r="2.8947368421052633" cx="436.36363636363643" cy="500" fill="hsla(261, 2%, 92%, 1.00)" stroke="none"></circle><circle r="2.8947368421052633" cx="509.0909090909092" cy="500" fill="hsla(180, 73%, 52%, 1.00)" stroke="none"></circle><circle r="2.8947368421052633" cx="581.8181818181819" cy="500" fill="hsla(261, 2%, 92%, 1.00)" stroke="none"></circle><circle r="2.8947368421052633" cx="654.5454545454546" cy="500" fill="hsla(180, 73%, 52%, 1.00)" stroke="none"></circle><circle r="2.8947368421052633" cx="727.2727272727274" cy="500" fill="hsla(261, 2%, 92%, 1.00)" stroke="none"></circle><circle r="2.8947368421052633" cx="800.0000000000001" cy="500" fill="hsla(180, 73%, 52%, 1.00)" stroke="none"></circle><circle r="2.8947368421052633" cx="0" cy="600" fill="hsla(261, 2%, 92%, 1.00)" stroke="none"></circle><circle r="2.8947368421052633" cx="72.72727272727273" cy="600" fill="hsla(180, 73%, 52%, 1.00)" stroke="none"></circle><circle r="2.8947368421052633" cx="145.45454545454547" cy="600" fill="hsla(261, 2%, 92%, 1.00)" stroke="none"></circle><circle r="2.8947368421052633" cx="218.1818181818182" cy="600" fill="hsla(180, 73%, 52%, 1.00)" stroke="none"></circle><circle r="2.8947368421052633" cx="290.90909090909093" cy="600" fill="hsla(261, 2%, 92%, 1.00)" stroke="none"></circle><circle r="2.8947368421052633" cx="363.6363636363637" cy="600" fill="hsla(180, 73%, 52%, 1.00)" stroke="none"></circle><circle r="2.8947368421052633" cx="436.36363636363643" cy="600" fill="hsla(261, 2%, 92%, 1.00)" stroke="none"></circle><circle r="2.8947368421052633" cx="509.0909090909092" cy="600" fill="hsla(180, 73%, 52%, 1.00)" stroke="none"></circle><circle r="2.8947368421052633" cx="581.8181818181819" cy="600" fill="hsla(261, 2%, 92%, 1.00)" stroke="none"></circle><circle r="2.8947368421052633" cx="654.5454545454546" cy="600" fill="hsla(180, 73%, 52%, 1.00)" stroke="none"></circle><circle r="2.8947368421052633" cx="727.2727272727274" cy="600" fill="hsla(261, 2%, 92%, 1.00)" stroke="none"></circle><circle r="2.8947368421052633" cx="800.0000000000001" cy="600" fill="hsla(180, 73%, 52%, 1.00)" stroke="none"></circle><circle r="2.8947368421052633" cx="0" cy="700" fill="hsla(261, 2%, 92%, 1.00)" stroke="none"></circle><circle r="2.8947368421052633" cx="72.72727272727273" cy="700" fill="hsla(180, 73%, 52%, 1.00)" stroke="none"></circle><circle r="2.8947368421052633" cx="145.45454545454547" cy="700" fill="hsla(261, 2%, 92%, 1.00)" stroke="none"></circle><circle r="2.8947368421052633" cx="218.1818181818182" cy="700" fill="hsla(180, 73%, 52%, 1.00)" stroke="none"></circle><circle r="2.8947368421052633" cx="290.90909090909093" cy="700" fill="hsla(261, 2%, 92%, 1.00)" stroke="none"></circle><circle r="2.8947368421052633" cx="363.6363636363637" cy="700" fill="hsla(180, 73%, 52%, 1.00)" stroke="none"></circle><circle r="2.8947368421052633" cx="436.36363636363643" cy="700" fill="hsla(261, 2%, 92%, 1.00)" stroke="none"></circle><circle r="2.8947368421052633" cx="509.0909090909092" cy="700" fill="hsla(180, 73%, 52%, 1.00)" stroke="none"></circle><circle r="2.8947368421052633" cx="581.8181818181819" cy="700" fill="hsla(261, 2%, 92%, 1.00)" stroke="none"></circle><circle r="2.8947368421052633" cx="654.5454545454546" cy="700" fill="hsla(180, 73%, 52%, 1.00)" stroke="none"></circle><circle r="2.8947368421052633" cx="727.2727272727274" cy="700" fill="hsla(261, 2%, 92%, 1.00)" stroke="none"></circle><circle r="2.8947368421052633" cx="800.0000000000001" cy="700" fill="hsla(180, 73%, 52%, 1.00)" stroke="none"></circle><circle r="2.8947368421052633" cx="0" cy="800" fill="hsla(261, 2%, 92%, 1.00)" stroke="none"></circle><circle r="2.8947368421052633" cx="72.72727272727273" cy="800" fill="hsla(180, 73%, 52%, 1.00)" stroke="none"></circle><circle r="2.8947368421052633" cx="145.45454545454547" cy="800" fill="hsla(261, 2%, 92%, 1.00)" stroke="none"></circle><circle r="2.8947368421052633" cx="218.1818181818182" cy="800" fill="hsla(180, 73%, 52%, 1.00)" stroke="none"></circle><circle r="2.8947368421052633" cx="290.90909090909093" cy="800" fill="hsla(261, 2%, 92%, 1.00)" stroke="none"></circle><circle r="2.8947368421052633" cx="363.6363636363637" cy="800" fill="hsla(180, 73%, 52%, 1.00)" stroke="none"></circle><circle r="2.8947368421052633" cx="436.36363636363643" cy="800" fill="hsla(261, 2%, 92%, 1.00)" stroke="none"></circle><circle r="2.8947368421052633" cx="509.0909090909092" cy="800" fill="hsla(180, 73%, 52%, 1.00)" stroke="none"></circle><circle r="2.8947368421052633" cx="581.8181818181819" cy="800" fill="hsla(261, 2%, 92%, 1.00)" stroke="none"></circle><circle r="2.8947368421052633" cx="654.5454545454546" cy="800" fill="hsla(180, 73%, 52%, 1.00)" stroke="none"></circle><circle r="2.8947368421052633" cx="727.2727272727274" cy="800" fill="hsla(261, 2%, 92%, 1.00)" stroke="none"></circle><circle r="2.8947368421052633" cx="800.0000000000001" cy="800" fill="hsla(180, 73%, 52%, 1.00)" stroke="none"></circle></g></svg>