<svg width="435" height="135" viewBox="0 0 435 135" fill="none" xmlns="http://www.w3.org/2000/svg">
<path d="M2.99917 122.256C-0.173148 124.466 -0.953581 128.829 1.25602 132.001C3.46562 135.173 7.82852 135.954 11.0008 133.744L2.99917 122.256ZM136.864 41.1599L140.36 47.2247L136.864 41.1599ZM192.997 23.1059L195.237 16.4738L192.997 23.1059ZM199.012 94.7805L205.634 92.511L199.012 94.7805ZM203.467 102.002L210.402 101.051L203.467 102.002ZM271.072 65.894L275.803 71.0528L275.803 71.0528L271.072 65.894ZM318.852 44.9513L313.156 49.02L318.852 44.9513ZM327.873 77.2681L320.917 78.0483L327.873 77.2681ZM332.774 84.8508L329.041 90.7724L329.041 90.7724L332.774 84.8508ZM390.912 49.194L387.254 43.2256L390.912 49.194ZM434.446 34.8612C435.953 31.301 434.289 27.1933 430.728 25.6865L372.711 1.1315C369.15 -0.375311 365.043 1.28933 363.536 4.84958C362.029 8.40984 363.694 12.5175 367.254 14.0243L418.825 35.851L396.999 87.4223C395.492 90.9825 397.156 95.0902 400.717 96.597C404.277 98.1038 408.385 96.4392 409.891 92.8789L434.446 34.8612ZM11.0008 133.744C53.7726 103.952 94.9166 73.4161 140.36 47.2247L133.369 35.0951C87.2423 61.6804 45.3158 92.7814 2.99917 122.256L11.0008 133.744ZM140.36 47.2247C146.292 43.8054 155.777 38.1605 165.791 33.9982C170.783 31.9234 175.679 30.317 180.126 29.5291C184.63 28.7312 188.169 28.8638 190.758 29.7379L195.237 16.4738C189.582 14.5642 183.436 14.7247 177.684 15.7438C171.876 16.7729 165.947 18.7725 160.418 21.0703C149.392 25.653 139.053 31.8189 133.369 35.0951L140.36 47.2247ZM190.758 29.7379C192.049 30.1739 192.995 31.0003 193.607 33.5312C194.302 36.403 194.24 40.5027 193.537 45.5964C192.849 50.5908 191.667 55.7858 190.572 60.7671C189.565 65.3467 188.448 70.4549 188.448 74.1989H202.448C202.448 72.329 203.107 68.9471 204.245 63.7735C205.294 59.0016 206.624 53.1803 207.406 47.5084C208.174 41.9358 208.541 35.7192 207.214 30.2378C205.805 24.4154 202.278 18.8517 195.237 16.4738L190.758 29.7379ZM188.448 74.1989C188.448 82.5167 189.724 89.2708 192.39 97.05L205.634 92.511C203.409 86.0203 202.448 80.8 202.448 74.1989H188.448ZM192.39 97.05C192.934 98.6389 193.734 99.8977 194.398 100.806C195.021 101.659 195.749 102.49 196.106 102.912C196.57 103.46 196.717 103.666 196.773 103.758C196.799 103.8 196.607 103.502 196.532 102.953L210.402 101.051C209.901 97.3995 207.608 94.8308 206.793 93.868C205.488 92.3256 205.574 92.3368 205.634 92.511L192.39 97.05ZM196.532 102.953C196.839 105.192 197.775 107.572 199.783 109.441C201.751 111.272 204.09 112 206.08 112.222C209.735 112.631 213.663 111.505 216.943 110.25C223.848 107.609 232.41 102.546 240.543 97.1936C256.904 86.4258 273.568 73.1031 275.803 71.0528L266.34 60.7352C264.812 62.1368 248.789 75.0065 232.846 85.499C224.828 90.7763 217.334 95.1112 211.941 97.1746C210.633 97.6748 209.58 97.9896 208.771 98.1597C207.924 98.3378 207.593 98.304 207.635 98.3087C207.72 98.3182 208.503 98.4312 209.321 99.1926C210.18 99.9917 210.374 100.847 210.402 101.051L196.532 102.953ZM275.803 71.0528C277.738 69.2779 287.485 61.92 297.616 56.2211C302.691 53.3664 307.373 51.2121 310.925 50.2797C312.716 49.8095 313.739 49.7827 314.159 49.8341C314.423 49.8664 313.719 49.8089 313.156 49.02L324.548 40.8825C322.254 37.6705 318.91 36.3112 315.861 35.9379C312.967 35.5836 310.004 36.0472 307.37 36.7385C302.072 38.1293 296.151 40.9824 290.752 44.019C279.937 50.1025 269.255 58.0621 266.34 60.7352L275.803 71.0528ZM313.156 49.02C318.629 56.6829 319.667 66.9086 320.917 78.0483L334.83 76.4878C333.705 66.4641 332.566 52.1081 324.548 40.8825L313.156 49.02ZM320.917 78.0483C321.457 82.8613 324.663 88.0124 329.041 90.7724L336.507 78.9292C336.236 78.7583 335.781 78.3421 335.365 77.687C335.173 77.383 335.031 77.0922 334.938 76.8488C334.842 76.597 334.828 76.4714 334.83 76.4878L320.917 78.0483ZM329.041 90.7724C335.995 95.1563 343.778 93.6044 349.963 90.8913C356.264 88.1276 362.64 83.4485 368.375 78.6473C374.171 73.7954 379.774 68.4182 384.406 64.0334C389.352 59.3509 392.683 56.3185 394.569 55.1624L387.254 43.2256C383.809 45.3372 379.219 49.6646 374.781 53.8666C370.028 58.3662 364.781 63.398 359.389 67.9122C353.936 72.4772 348.783 76.1213 344.34 78.0705C339.781 80.0701 337.604 79.6208 336.507 78.9292L329.041 90.7724ZM394.569 55.1624C405.965 48.1791 417.988 43.7434 430.629 38.6204L425.371 25.6454C413.307 30.5342 399.895 35.4794 387.254 43.2256L394.569 55.1624Z" fill="#0C24FC"/>
</svg>
